HIERARCHY
ROOT Hips
{
  OFFSET 263.056 91.6644 -274.608
  CHANNELS 6 Xposition Yposition Zposition Zrotation Xrotation Yrotation
  JOINT LeftUpLeg
  {
    OFFSET 8.64259 1.95398 -2.38835
    CHANNELS 3 Zrotation Xrotation Yrotation
    JOINT LeftLeg
    {
      OFFSET 43.7702 0 0
      CHANNELS 3 Zrotation Xrotation Yrotation
      JOINT LeftFoot
      {
        OFFSET 40.6238 0 0
        CHANNELS 3 Zrotation Xrotation Yrotation
        JOINT LeftToeBase
        {
          OFFSET 12.7242 0 0
          CHANNELS 3 Zrotation Xrotation Yrotation
          End Site
          {
            OFFSET 0 0 0
          }
        }
      }
    }
  }
  JOINT RightUpLeg
  {
    OFFSET -8.2249 1.95398 -2.59336
    CHANNELS 3 Zrotation Xrotation Yrotation
    JOINT RightLeg
    {
      OFFSET 43.5653 0 0
      CHANNELS 3 Zrotation Xrotation Yrotation
      JOINT RightFoot
      {
        OFFSET 40.6238 0 0
        CHANNELS 3 Zrotation Xrotation Yrotation
        JOINT RightToeBase
        {
          OFFSET 12.7242 0 0
          CHANNELS 3 Zrotation Xrotation Yrotation
          End Site
          {
            OFFSET 0 0 0
          }
        }
      }
    }
  }
  JOINT Spine
  {
    OFFSET 0.165834 0.87714 6.61349
    CHANNELS 3 Zrotation Xrotation Yrotation
    JOINT Spine1
    {
      OFFSET 7.38963 1.71661e-005 0
      CHANNELS 3 Zrotation Xrotation Yrotation
      JOINT Spine2
      {
        OFFSET 11.9445 1.14441e-005 0
        CHANNELS 3 Zrotation Xrotation Yrotation
        JOINT Spine3
        {
          OFFSET 14.7254 4.19617e-005 0
          CHANNELS 3 Zrotation Xrotation Yrotation
          JOINT Spine4
          {
            OFFSET 10.9679 0 0
            CHANNELS 3 Zrotation Xrotation Yrotation
            JOINT RightShoulder
            {
              OFFSET 2.46616 -1.6653 3.69651
              CHANNELS 3 Zrotation Xrotation Yrotation
              JOINT RightArm
              {
                OFFSET 13.0012 0 0
                CHANNELS 3 Zrotation Xrotation Yrotation
                JOINT RightForeArm
                {
                  OFFSET 28.7848 1.52588e-005 0
                  CHANNELS 3 Zrotation Xrotation Yrotation
                  JOINT RightHand
                  {
                    OFFSET 26.5688 1.52588e-005 0
                    CHANNELS 3 Zrotation Xrotation Yrotation
                    End Site
                    {
                      OFFSET 0 0 0
                    }
                  }
                }
              }
            }
            JOINT LeftShoulder
            {
              OFFSET 2.38034 -1.29275 -3.7523
              CHANNELS 3 Zrotation Xrotation Yrotation
              JOINT LeftArm
              {
                OFFSET 16.3182 6.10352e-005 0
                CHANNELS 3 Zrotation Xrotation Yrotation
                JOINT LeftForeArm
                {
                  OFFSET 27.0901 0 0
                  CHANNELS 3 Zrotation Xrotation Yrotation
                  JOINT LeftHand
                  {
                    OFFSET 24.5451 1.52588e-005 0
                    CHANNELS 3 Zrotation Xrotation Yrotation
                    End Site
                    {
                      OFFSET 0 0 0
                    }
                  }
                }
              }
            }
            JOINT Neck
            {
              OFFSET 5.0226 -0.0266342 0
              CHANNELS 3 Zrotation Xrotation Yrotation
              JOINT Head
              {
                OFFSET 6.69364 2.86102e-005 0
                CHANNELS 3 Zrotation Xrotation Yrotation
                End Site
                {
                  OFFSET 0 0 0
                }
              }
            }
          }
        }
      }
    }
  }
}
MOTION
Frames:	15
Frame Time:	0.0416667
27.6115 93.3644 -312.651 21.4791 -42.7201 30.1577 179.922 46.5398 87.9804 -20.4916 17.8973 1.82748 77.2238 11.7653 1.82584 27.8036 -0.180205 -7.43351 -167.488 52.6272 83.536 149.529 22.2554 -168.859 29.2029 -1.66457 -6.10372 -143.691 -79.1186 -6.70076 -4.74804 0.314643 -93.0016 26.2405 -10.8457 -2.97764 14.613 -10.9661 -2.4921 -8.18924 -9.44684 -6.12267 11.8234 -9.44686 -6.12268 73.3146 -38.3032 -132.075 36.3766 -3.755 -20.5181 0.885028 -29.4599 -0.00350745 -34.9379 16.0265 -54.7246 -65.8917 -44.6606 116.274 -47.9709 14.2884 16.7782 5.64855 22.1107 -33.4437 26.6589 3.15573 8.12141 -14.4408 18.3662 23.2698 -2.65604 18.0778 -7.36255 
27.5141 94.6583 -313.516 15.7125 -52.3821 27.3907 -178.095 39.6999 92.3929 -19.9093 14.6639 1.70283 77.0504 11.3602 2.20306 24.5282 -2.92861 -10.3893 -177.662 44.9753 92.6694 158.34 36.7996 -176.757 31.9249 -0.237778 -1.25441 -119.849 -82.0386 14.6346 -3.90949 1.31845 -93.0502 24.1779 -9.29154 -3.80674 12.5362 -9.4499 -3.39119 -10.154 -7.7181 -6.43243 9.85869 -7.71811 -6.43244 73.8914 -38.6681 -130.935 36.0992 -2.34578 -19.838 -0.300742 -31.6773 -0.00358856 -34.5321 15.5463 -54.2467 -68.9295 -45.8986 111.217 -45.9233 14.4596 16.7831 8.13033 24.2084 -35.6512 13.2302 1.50534 7.29844 -9.85474 17.0214 21.094 -8.34361 16.1464 -5.23753 
27.3717 95.5777 -315.047 26.2569 -55.1373 33.8233 -178.023 32.2255 88.7811 -13.3568 16.3364 1.57911 73.2794 10.8631 1.89519 24.5962 -2.52032 -12.5584 -178.38 41.3705 88.7759 154.867 53.1739 -178.687 23.83 0.741884 3.15419 20.1207 -52.0139 141.371 -4.09857 1.73754 -92.3974 23.3876 -9.27339 -2.4865 11.7484 -9.37372 -2.07263 -10.9831 -8.09581 -5.17326 9.02956 -8.09581 -5.17326 73.6287 -39.6194 -130.775 35.3374 1.40307 -17.0729 -3.17679 -31.7824 -0.00359264 -32.7838 14.6738 -54.7132 -73.1719 -47.7969 104.339 -43.4446 12.2343 16.5143 8.80466 22.0179 -35.8312 12.6774 1.62088 8.55767 -12.3617 14.8638 22.2061 -3.16166 14.185 -7.66199 
27.1951 96.1646 -316.615 22.8947 -65.0388 31.6575 -175.824 25.9753 91.4145 -15.1552 11.065 1.5184 75.7209 11.349 0.424977 22.5156 -4.26216 -13.3714 177.323 33.6207 92.0474 -96.9089 84.5568 72.86 26.3925 4.67664 9.76517 26.4461 -17.4624 117.069 -3.24098 2.77454 -92.2632 21.2603 -7.54833 -2.8688 9.60887 -7.66721 -2.53223 -13.0332 -6.3371 -5.01021 6.97947 -6.33711 -5.01022 73.3034 -40.5866 -130.709 34.3787 2.40691 -13.5156 -3.98581 -27.9295 -0.00345654 -28.3162 12.6011 -55.1669 -78.4647 -49.2286 96.1194 -41.8334 10.3735 16.0093 8.22293 18.4438 -35.3712 12.2995 1.6649 9.19494 -10.9589 12.1575 21.5886 -3.25696 11.2233 -7.74818 
27.2528 96.3956 -318.109 30.7087 -70.0734 38.2912 -175.501 20.5254 90.7096 -14.7054 7.76795 2.00541 78.2055 12.106 -3.59384 18.0486 -8.5657 -12.3706 175.938 26.8936 91.6964 -33.4104 51.5299 10.6264 38.5962 7.76548 10.1463 39.9095 3.88308 74.6527 -2.98374 3.58479 -91.904 19.6632 -6.85695 -2.43289 8.00869 -6.95733 -2.12751 -14.6197 -5.80856 -4.38578 5.39291 -5.80855 -4.38579 73.0247 -41.3016 -130.719 33.603 1.62366 -9.34189 -1.9802 -24.8662 -0.00336599 -25.5186 10.8198 -53.2661 -84.1277 -50.656 87.6319 -40.1776 9.38282 14.9586 7.81877 16.1063 -35.2356 13.0292 1.67001 8.59507 -6.22551 9.86084 20.6523 -6.10582 8.25181 -7.48238 
27.4289 96.5052 -319.036 36.0402 -73.2226 43.1881 -175.099 16.6797 90.551 -13.4717 4.56079 2.2199 80.7834 13.3411 -7.08083 15.2446 -10.6183 -14.1773 175.776 21.2968 91.9518 -26.8282 28.3639 6.92167 50.5821 6.43618 4.68106 46.2347 5.04959 40.838 -2.63651 4.27447 -91.6456 18.2895 -6.03935 -2.1739 6.63123 -6.12914 -1.90516 -15.9754 -5.10669 -3.89153 4.03723 -5.1067 -3.89154 72.82 -43.6475 -129.683 32.042 1.34979 -5.5199 -2.64818 -25.6408 -0.00338753 -21.5479 7.37474 -46.0019 -89.3908 -50.8664 79.8124 -39.0642 9.07748 13.1341 7.53236 14.7072 -35.3674 14.4935 1.67883 7.48804 -2.9931 7.79506 18.0572 -5.49254 5.83998 -7.40123 
27.8157 96.3306 -319.546 44.4381 -74.8473 51.1812 -175.418 13.5001 90.0873 -12.5799 2.27249 2.72519 83.8934 15.4698 -10.1773 10.7414 -14.6977 -14.1947 176 18.9722 91.9607 -27.702 20.2005 5.38136 57.4965 3.34309 2.24993 45.9279 3.2177 24.7504 -2.34594 4.96616 -91.314 16.9168 -5.29627 -1.73483 5.2558 -5.36747 -1.49949 -17.3378 -4.52985 -3.24869 2.67486 -4.52984 -3.2487 73.9369 -46.2502 -126.61 31.6351 1.07522 -2.3275 -4.12202 -25.0563 -0.00337119 -15.5349 3.87361 -37.2451 -93.5411 -49.7093 73.3826 -37.8671 10.0306 10.8472 7.52745 14.3603 -36.1489 12.9789 1.32556 6.12257 0.673341 5.34656 12.387 -5.29845 3.56914 -4.74531 
28.1835 95.3371 -319.301 46.9472 -74.8898 53.3794 -176.097 14.0207 89.6029 -15.7666 0.135939 2.91822 89.903 18.8037 -12.7056 8.57788 -16.9184 -13.5992 175.976 22.6016 91.696 -36.1525 19.7453 5.77386 60.1001 0.482268 0.366697 51.2129 3.81832 17.8921 -2.11794 5.43164 -91.0674 15.9933 -4.72088 -1.38948 4.33035 -4.77744 -1.17994 -18.2534 -4.08486 -2.74585 1.75925 -4.08486 -2.74585 74.1198 -48.6002 -125.145 30.7337 1.61359 1.39459 -6.70826 -21.2037 0.276512 -11.8662 1.97936 -29.6657 -95.8316 -48.0984 69.4857 -36.9004 12.4023 8.83975 7.4926 14.4866 -38.1947 13.2556 1.40481 6.49382 3.22041 3.44989 8.55001 -4.27974 1.99559 -2.50308 
28.4729 94.917 -318.36 48.0406 -74.8043 53.6945 -176.478 13.0547 88.9828 -15.7692 -0.295224 2.57974 91.5906 20.9297 -13.0038 11.3639 -15.3942 -10.7878 174.714 27.9435 92.2504 -44.6567 22.7942 5.65091 63.2594 -1.47642 -0.784645 50.8939 3.50481 16.0125 -2.01165 5.88847 -90.8531 15.0864 -4.40351 -1.05637 3.4227 -4.44572 -0.861191 -19.1581 -3.88224 -2.33263 0.854546 -3.88224 -2.33264 73.4869 -49.4168 -125.656 31.1826 2.85497 5.29094 -11.8759 -20.8441 -3.98627 -7.61841 0.580583 -21.2089 -98.5189 -47.011 65.0861 -34.5363 12.2818 8.23761 8.745 13.4172 -41.5874 13.3414 1.47812 6.96108 4.24959 2.73317 6.87636 -2.02651 1.45633 -1.9061 
28.6667 95.3788 -316.152 54.8637 -85.7194 57.4267 -173.929 0.91694 87.4171 -9.37946 -3.51365 1.14156 85.9185 21.6343 -7.39119 16.0122 -10.5284 -12.1089 177.378 25.2024 92.1655 -41.988 12.6046 0.665564 66.8872 -2.93344 -1.58488 44.3068 1.45323 7.03648 -1.04647 6.98186 -90.3037 12.9049 -2.22468 -0.351845 1.23593 -2.23801 -0.253541 -21.3121 -2.01602 -1.00445 -1.29949 -2.01602 -1.00446 76.9396 -51.1421 -119.883 30.9787 1.92069 6.43428 -17.5921 -16.2158 -20.1556 -1.35698 -0.3548 -14.8372 -101.152 -44.8287 60.2577 -32.6003 11.1448 7.19438 8.39514 11.9789 -41.1734 10.5042 1.07823 5.8367 -9.48525 4.79431 3.24712 20.833 4.02808 -2.7018 
28.9581 95.369 -312.796 34.6813 -88.6643 36.1394 -173.167 -3.72491 86.7149 -8.29649 -1.38437 0.265521 80.8153 20.8263 -1.13511 25.2189 -1.88085 -13.1182 179.221 26.5999 91.9818 -32.8461 6.61427 -0.0869129 66.2877 -2.73624 -1.50067 44.236 1.10503 2.14498 -0.682946 7.4419 -90.1261 11.9901 -1.41743 -0.0986757 0.319915 -1.4204 -0.0361849 -22.221 -1.32223 -0.520191 -2.20837 -1.32222 -0.520186 77.954 -52.9963 -117.652 29.3734 1.01991 8.49227 -17.5845 -14.1546 -28.2037 -0.888348 -0.335417 -7.19718 -101.139 -43.193 59.5717 -29.7731 12.8266 4.16713 8.17471 11.7241 -42.2632 8.77668 0.722916 3.94277 -3.98521 3.1988 0.856233 14.7054 2.96433 -0.469602 
29.3294 94.9366 -308.258 15.6678 -88.7801 15.96 -173.442 -6.51995 85.4889 -7.97977 5.93452 -0.500638 72.8171 19.7896 9.40101 36.3271 8.05192 -11.8301 179.694 28.7474 91.335 -23.9762 8.40482 0.562859 65.36 -2.22266 -1.22073 46.3472 1.75507 7.34377 -0.627921 7.7436 -90.0369 11.3875 -1.26659 0.0542166 -0.282841 -1.26298 0.109908 -22.8227 -1.22433 -0.329015 -2.81005 -1.22433 -0.329017 78.5628 -54.0111 -116.384 27.9412 -0.380947 10.3309 -15.345 -14.686 -31.637 -1.27867 -0.286187 -1.62397 -102.143 -42.4099 57.6757 -26.4968 13.2831 1.35363 8.22102 11.5594 -43.1351 11.1765 1.0993 5.61264 3.47903 1.14249 0.0683537 5.82831 1.26304 1.9269 
29.3674 93.8804 -302.298 6.96546 -88.4128 6.75493 -173.464 -7.575 85.7195 -11.9437 19.5012 -1.41538 63.6839 16.1771 22.2723 45.6928 17.2741 -7.09666 179.692 30.023 91.7396 -19.6106 9.57902 1.41567 67.013 -2.80362 -1.53189 43.1065 1.15664 4.38276 -0.638648 7.95745 -90.0915 10.9592 -1.31376 -0.057217 -0.711047 -1.315 0.000669805 -23.2511 -1.23581 -0.449454 -3.23841 -1.23582 -0.449476 78.4656 -55.2157 -116.054 25.4961 -1.83609 12.1701 -13.0592 -16.2601 -33.0088 -0.417791 -0.258182 1.07515 -103.462 -42.2835 55.5922 -23.8513 12.9962 -1.14439 6.90339 11.6434 -40.2895 13.2021 1.25406 5.43823 5.12606 0.677877 -0.275936 6.2079 0.960863 2.95382 
29.2497 92.919 -294.447 54.6985 -87.167 54.4839 -173.385 -8.92006 87.3254 -18.113 24.3936 -0.578175 59.2523 7.72429 17.43 56.7118 28.4042 -5.37442 179.324 31.3415 92.047 -26.8626 9.85165 1.35769 63.8349 -1.54183 -0.829411 47.8613 2.05729 8.12136 -0.92128 7.95105 -90.2774 10.9721 -1.96252 -0.365128 -0.697435 -1.97669 -0.278377 -23.2423 -1.76204 -0.938233 -3.22967 -1.76205 -0.938239 78.156 -55.4612 -116.391 23.8032 -3.4199 15.3465 -9.28676 -16.7826 -32.9748 -2.29344 -0.341562 5.48614 -103.64 -41.9574 55.1614 -25.5239 12.4945 -0.856536 5.6225 12.6057 -35.9183 13.5209 1.4269 6.4738 5.78552 0.687569 0.17128 5.68665 0.872711 2.95072 
28.9263 92.2989 -285.261 58.9592 -85.7093 59.4701 -173.299 -5.87822 91.5445 -29.6532 26.2098 0.281472 53.9012 -0.93068 7.37295 63.8836 36.7084 -2.33772 177.728 31.509 93.1067 -37.1823 11.3041 2.26183 67.4509 -2.89455 -1.56072 40.4307 0.919398 7.4607 -1.08409 7.81376 -90.5156 11.2383 -2.39745 -0.791551 -0.430562 -2.42996 -0.685219 -22.9777 -2.0487 -1.4757 -2.96502 -2.0487 -1.4757 77.8345 -55.7189 -116.736 22.4393 -4.61487 16.0415 -7.36793 -17.7398 -32.1895 -2.14488 -0.330432 6.06091 -103.995 -42.0818 54.6788 -28.2678 12.5236 2.12008 3.78638 11.5434 -32.7556 13.4073 1.23084 5.14942 6.27628 0.578318 0.639499 4.25626 0.674207 3.53864 
